<svg width="123" height="15" viewBox="0 0 123 15" fill="none" xmlns="http://www.w3.org/2000/svg">
<g clip-path="url(#clip0_399_1289)">
<path d="M18.8182 0C23.1449 0 26.5228 3.27859 26.5523 7.51369C26.5803 11.6004 23.0727 15.0043 18.8329 15.0043C14.6521 15.0043 11.1725 11.6134 11.1725 7.53385C11.1667 6.54775 11.36 5.57023 11.7415 4.65737C12.1229 3.74451 12.6849 2.91428 13.3953 2.21432C14.1057 1.51435 14.9504 0.958428 15.881 0.57844C16.8116 0.198453 17.8097 0.00187996 18.8182 0Z" fill="#3EB555"/>
<path d="M27.1621 1.37376C27.2225 1.35071 27.2446 1.33342 27.2682 1.33342C28.1521 1.33342 29.1965 1.06693 29.8668 1.44002C30.5062 1.79583 30.5386 2.90934 30.8376 3.68865C31.4711 5.34812 32.0736 7.02054 32.6923 8.69585C32.987 8.5446 32.987 8.24786 33.0724 8.01593C33.862 5.97906 34.6531 3.94218 35.4029 1.8909C35.5606 1.45875 35.7506 1.30317 36.225 1.3147C37.4492 1.34351 37.4521 1.3147 37.8911 2.4671C38.6385 4.41755 39.3844 6.36848 40.1288 8.31988C40.1775 8.44809 40.1671 8.61519 40.3955 8.68001C41.2131 6.46451 42.0469 4.25189 42.8365 2.02343C43.0251 1.49188 43.2681 1.25419 43.8677 1.31325C44.5233 1.37808 45.1936 1.3291 45.827 1.3291C45.9743 1.49188 45.8889 1.6172 45.8388 1.74973C44.4997 5.17093 43.1444 8.58638 41.8318 12.0162C41.6359 12.5276 41.4031 12.7048 40.8433 12.6889C39.354 12.6472 39.354 12.676 38.8133 11.2974C38.0694 9.39882 37.321 7.50312 36.527 5.48497C35.758 7.44838 35.0302 9.30231 34.304 11.1548C33.6838 12.7394 33.6852 12.7264 31.9395 12.6803C31.6243 12.6731 31.4608 12.5953 31.3503 12.3014C29.9626 8.71554 28.5704 5.133 27.1739 1.55382C27.1631 1.49442 27.1591 1.43402 27.1621 1.37376Z" fill="white"/>
<path d="M106.168 9.05928V1.36841H108.862C109.009 1.51246 108.945 1.71701 108.945 1.89996C108.945 5.21312 108.936 8.52629 108.959 11.8308C108.959 12.3508 108.84 12.4733 108.288 12.5395C106.745 12.7254 105.718 12.1679 104.752 10.9751C103.036 8.85905 101.121 6.89708 99.154 4.72047V5.6179C99.154 7.7052 99.1422 9.79537 99.1717 11.8798C99.179 12.3897 99.0243 12.5496 98.5102 12.5179C97.8311 12.4762 97.1475 12.5079 96.4478 12.5079C96.4244 12.3709 96.4082 12.233 96.3992 12.0944C96.3992 8.52629 96.3992 4.95815 96.3992 1.3252C97.2757 1.3252 98.1036 1.33528 98.9315 1.3252C99.2689 1.3252 99.3838 1.57728 99.5532 1.75735C101.568 3.98341 103.582 6.21235 105.593 8.44418C105.746 8.61704 105.908 8.7827 106.168 9.05928Z" fill="white"/>
<path d="M85.9957 8.10844C86.1651 8.02345 86.2726 7.97447 86.3757 7.91829C87.8165 7.15338 88.5251 5.62357 88.1818 4.02892C87.8651 2.5452 86.6335 1.41153 85.0307 1.36255C82.5838 1.28908 80.1325 1.34382 77.6414 1.34382V12.4746H80.3726V8.29715C80.9619 8.29715 81.5084 8.34757 82.0343 8.28418C82.7341 8.20063 83.1539 8.45416 83.5296 9.02893C84.2131 10.0791 84.9836 11.0744 85.7157 12.0958C85.8719 12.3133 86.0104 12.5279 86.3404 12.5164C87.3377 12.502 88.335 12.5164 89.4929 12.5164L85.9957 8.10844ZM84.0555 6.04852C82.8637 6.09317 81.6675 6.06004 80.4006 6.06004V3.60254C81.6454 3.60254 82.8608 3.57517 84.0732 3.61262C84.8481 3.63711 85.3813 4.16289 85.399 4.79672C85.4093 5.45503 84.8643 6.02259 84.0555 6.05284V6.04852Z" fill="white"/>
<path d="M68.4902 8.13843C70.3832 7.04508 71.1021 5.54551 70.5997 3.81691C70.1121 2.14448 68.8113 1.33203 66.6222 1.33203H60.1138V12.4729H62.845V8.29544C63.4416 8.29544 63.9808 8.34154 64.5097 8.28392C65.1976 8.21045 65.6249 8.42797 66.002 9.0229C66.6752 10.0788 67.4545 11.0699 68.1911 12.0869C68.3163 12.2597 68.4091 12.4974 68.664 12.5003C69.7202 12.5118 70.7765 12.5003 71.9668 12.5003L68.4902 8.13843ZM66.5397 6.05546C65.345 6.09291 64.1473 6.06554 62.8745 6.06554V3.60947C64.1163 3.60947 65.3332 3.58354 66.5485 3.61956C67.3293 3.64117 67.8552 4.15398 67.8744 4.79357C67.8935 5.43316 67.319 6.03097 66.5397 6.05546Z" fill="white"/>
<path d="M123 3.39196L120.966 5.13065C120.31 4.48818 119.593 3.96528 118.701 3.70455C117.063 3.2263 115.297 3.79818 114.478 5.08456C113.674 6.34644 113.825 8.10242 114.828 9.16551C115.774 10.1739 117.539 10.5786 118.831 10.0745C119.715 9.73019 120.188 9.08628 120.216 8.05776C119.525 8.05776 118.844 8.02895 118.167 8.0664C117.685 8.09521 117.479 7.95116 117.552 7.46859C117.577 7.30191 117.577 7.13254 117.552 6.96586C117.473 6.46456 117.72 6.37669 118.178 6.38966C119.551 6.41558 120.926 6.41703 122.303 6.38966C122.784 6.37813 122.937 6.51066 122.928 6.98891C122.901 8.61956 122.928 10.2517 122.91 11.8866C122.91 12.0984 123.058 12.4484 122.713 12.4873C122.368 12.5262 121.919 12.6991 121.633 12.2885C121.499 12.0969 121.385 11.8909 121.251 11.6763C118.819 13.3098 116.346 13.2926 113.899 11.8809C111.689 10.6046 110.683 8.12114 111.216 5.6017C111.699 3.32137 113.811 1.43287 116.352 1.05834C118.956 0.665078 121.185 1.3594 123 3.39196Z" fill="white"/>
<path d="M47.8054 12.4304V1.37598H57.9452V3.58283H55.0062C53.7054 3.58283 52.4032 3.603 51.1024 3.57563C50.6486 3.56699 50.5234 3.70239 50.5131 4.15183C50.5131 5.79545 50.488 5.79545 52.1895 5.79545H56.8742C56.8742 6.45376 56.8595 7.04869 56.8742 7.64362C56.8889 8.06857 56.6075 8.01671 56.3365 8.01671C54.6173 8.01671 52.8981 8.034 51.1804 8.00519C50.6766 7.99655 50.4704 8.11467 50.5175 8.63757C50.5646 9.16048 50.5278 9.68194 50.5278 10.261H57.9953C58.0498 10.359 58.0895 10.4051 58.0925 10.4411C58.1956 12.5154 58.1956 12.5154 56.0684 12.5154C53.5876 12.5154 51.1077 12.5154 48.6289 12.5154C48.3623 12.5053 48.0883 12.5745 47.8054 12.4304Z" fill="white"/>
<path d="M9.93351 4.8744C9.88932 2.82888 8.37786 1.34948 6.28302 1.33075C4.34582 1.31347 2.40861 1.32355 0.471408 1.33075C0.309361 1.33075 0.126692 1.27169 0 1.41142V12.4731H2.71651V8.61251C4.00552 8.61251 5.20467 8.64997 6.39941 8.60531C8.52518 8.52321 9.98066 6.95593 9.93351 4.8744ZM7.23027 5.01845C7.19638 5.7992 6.69256 6.33795 5.90442 6.35812C4.88205 6.38405 3.85673 6.35812 2.75923 6.35812V3.59667C3.85526 3.59667 4.92477 3.56354 5.98987 3.60675C6.78095 3.64277 7.26415 4.2377 7.23027 5.01269V5.01845Z" fill="white"/>
<path d="M91.1768 1.35449H93.9198V12.5098C93.1302 12.5098 92.3509 12.5011 91.5731 12.5098C91.2357 12.5098 91.1724 12.3513 91.1724 12.0647C91.1783 8.52246 91.1768 4.97593 91.1768 1.35449Z" fill="white"/>
<path d="M16.6762 6.10529C15.8438 8.05862 16.3403 9.63022 17.9578 10.1632C19.431 10.6487 20.9984 9.8751 21.4168 8.45476C21.8352 7.03442 20.9969 5.60111 19.5459 5.28564C19.4236 5.87625 19.484 6.47118 19.4958 7.06035C19.4958 7.4925 19.291 7.58469 18.9065 7.56741C18.55 7.55156 18.2215 7.59478 18.2303 7.07043C18.2524 5.70339 18.2495 4.33347 18.2303 2.96787C18.223 2.45505 18.5427 2.47377 18.908 2.46369C19.2733 2.45361 19.5532 2.53427 19.4781 2.97075C19.3661 3.6377 19.6696 3.89555 20.3163 4.11451C22.308 4.78579 23.3437 7.04451 22.6439 8.99783C22.4673 9.4853 22.1942 9.93397 21.8402 10.3182C21.4862 10.7024 21.0583 11.0147 20.5808 11.2372C20.1034 11.4596 19.5858 11.5879 19.0576 11.6147C18.5294 11.6415 18.001 11.5663 17.5026 11.3934C15.5197 10.7192 14.409 8.52102 15.0586 6.54321C15.449 5.35335 15.6449 5.30005 16.6762 6.10529Z" fill="#F9FCFA"/>
</g>
<defs>
<clipPath id="clip0_399_1289">
<rect width="123" height="15" fill="white"/>
</clipPath>
</defs>
</svg>
