<svg width="123" height="15" viewBox="0 0 123 15" fill="none" xmlns="http://www.w3.org/2000/svg">
<g clip-path="url(#clip0_399_1776)">
<path d="M18.8182 0C23.1449 0 26.5228 3.27859 26.5523 7.51369C26.5803 11.6004 23.0727 15.0043 18.8329 15.0043C14.6521 15.0043 11.1725 11.6134 11.1725 7.53385C11.1667 6.54775 11.36 5.57023 11.7415 4.65737C12.1229 3.74451 12.6849 2.91428 13.3953 2.21432C14.1057 1.51435 14.9504 0.958428 15.881 0.57844C16.8116 0.198453 17.8097 0.00187996 18.8182 0Z" fill="#3EB555"/>
<path d="M27.1621 1.37425C27.2225 1.3512 27.2446 1.33391 27.2682 1.33391C28.1521 1.33391 29.1965 1.06742 29.8668 1.44051C30.5062 1.79631 30.5386 2.90983 30.8376 3.68914C31.4711 5.34861 32.0736 7.02103 32.6923 8.69634C32.987 8.54509 32.987 8.24834 33.0724 8.01642C33.862 5.97955 34.6531 3.94267 35.4029 1.89139C35.5606 1.45924 35.7506 1.30366 36.225 1.31519C37.4492 1.344 37.4521 1.31519 37.8911 2.46759C38.6385 4.41804 39.3844 6.36896 40.1288 8.32037C40.1775 8.44858 40.1671 8.61568 40.3955 8.6805C41.2131 6.465 42.0469 4.25238 42.8365 2.02392C43.0251 1.49237 43.2681 1.25468 43.8677 1.31374C44.5233 1.37857 45.1936 1.32959 45.827 1.32959C45.9743 1.49237 45.8889 1.61769 45.8388 1.75022C44.4997 5.17142 43.1444 8.58687 41.8318 12.0167C41.6359 12.5281 41.4031 12.7053 40.8433 12.6894C39.354 12.6477 39.354 12.6765 38.8133 11.2979C38.0694 9.39931 37.321 7.50361 36.527 5.48545C35.758 7.44887 35.0302 9.3028 34.304 11.1553C33.6838 12.7398 33.6852 12.7269 31.9395 12.6808C31.6243 12.6736 31.4608 12.5958 31.3503 12.3019C29.9626 8.71603 28.5704 5.13349 27.1739 1.55431C27.1631 1.49491 27.1591 1.43451 27.1621 1.37425Z" fill="white"/>
<path d="M106.167 9.05934V1.36847H108.862C109.009 1.51252 108.944 1.71707 108.944 1.90002C108.944 5.21318 108.936 8.52635 108.959 11.8309C108.959 12.3509 108.84 12.4733 108.287 12.5396C106.745 12.7254 105.718 12.168 104.752 10.9752C103.036 8.85911 101.12 6.89714 99.1537 4.72053V5.61797C99.1537 7.70526 99.142 9.79543 99.1714 11.8798C99.1788 12.3898 99.0241 12.5497 98.51 12.518C97.8308 12.4762 97.1473 12.5079 96.4475 12.5079C96.4242 12.371 96.408 12.233 96.3989 12.0945C96.3989 8.52635 96.3989 4.95821 96.3989 1.32526C97.2755 1.32526 98.1034 1.33534 98.9313 1.32526C99.2686 1.32526 99.3835 1.57735 99.553 1.75741C101.568 3.98347 103.582 6.21241 105.593 8.44424C105.746 8.6171 105.908 8.78276 106.167 9.05934Z" fill="white"/>
<path d="M85.9959 8.10862C86.1653 8.02363 86.2729 7.97466 86.376 7.91848C87.8167 7.15357 88.5253 5.62375 88.1821 4.02911C87.8653 2.54538 86.6338 1.41171 85.031 1.36273C82.5841 1.28927 80.1327 1.344 77.6416 1.344V12.4748H80.3728V8.29733C80.9621 8.29733 81.5086 8.34775 82.0346 8.28437C82.7343 8.20082 83.1542 8.45435 83.5298 9.02911C84.2134 10.0792 84.9838 11.0746 85.716 12.0959C85.8721 12.3135 86.0106 12.5281 86.3406 12.5166C87.3379 12.5022 88.3353 12.5166 89.4932 12.5166L85.9959 8.10862ZM84.0557 6.0487C82.864 6.09336 81.6678 6.06022 80.4008 6.06022V3.60272C81.6457 3.60272 82.861 3.57535 84.0734 3.6128C84.8483 3.63729 85.3816 4.16308 85.3993 4.7969C85.4096 5.45521 84.8645 6.02277 84.0557 6.05302V6.0487Z" fill="white"/>
<path d="M68.4902 8.13885C70.3832 7.04551 71.1021 5.54594 70.5997 3.81733C70.1121 2.1449 68.8113 1.33246 66.6222 1.33246H60.1138V12.4733H62.845V8.29587C63.4416 8.29587 63.9808 8.34197 64.5097 8.28435C65.1976 8.21088 65.6249 8.4284 66.002 9.02333C66.6752 10.0792 67.4545 11.0703 68.1911 12.0873C68.3163 12.2601 68.4091 12.4978 68.664 12.5007C69.7202 12.5122 70.7765 12.5007 71.9668 12.5007L68.4902 8.13885ZM66.5397 6.05588C65.345 6.09334 64.1473 6.06597 62.8745 6.06597V3.6099C64.1163 3.6099 65.3332 3.58397 66.5485 3.61998C67.3293 3.64159 67.8552 4.15441 67.8744 4.794C67.8935 5.43358 67.319 6.03139 66.5397 6.05588Z" fill="white"/>
<path d="M123 3.39239L120.965 5.13108C120.31 4.48861 119.592 3.96571 118.701 3.70497C117.063 3.22673 115.297 3.79861 114.478 5.08498C113.673 6.34687 113.825 8.10284 114.828 9.16594C115.774 10.1743 117.539 10.5791 118.831 10.0749C119.715 9.73062 120.188 9.08671 120.216 8.05819C119.525 8.05819 118.844 8.02938 118.166 8.06683C117.685 8.09564 117.478 7.95159 117.552 7.46902C117.577 7.30234 117.577 7.13297 117.552 6.96629C117.473 6.46499 117.72 6.37712 118.178 6.39008C119.551 6.41601 120.926 6.41745 122.303 6.39008C122.783 6.37856 122.936 6.51109 122.928 6.98933C122.901 8.61999 122.928 10.2521 122.91 11.8871C122.91 12.0988 123.057 12.4489 122.713 12.4877C122.368 12.5266 121.919 12.6995 121.633 12.289C121.499 12.0974 121.385 11.8914 121.251 11.6767C118.819 13.3103 116.346 13.293 113.899 11.8813C111.689 10.605 110.683 8.12157 111.216 5.60213C111.699 3.3218 113.81 1.4333 116.351 1.05876C118.956 0.665505 121.185 1.35983 123 3.39239Z" fill="white"/>
<path d="M47.8057 12.4301V1.37567H57.9454V3.58252H55.0065C53.7057 3.58252 52.4034 3.60269 51.1026 3.57532C50.6489 3.56668 50.5236 3.70209 50.5133 4.15153C50.5133 5.79515 50.4883 5.79515 52.1898 5.79515H56.8744C56.8744 6.45346 56.8597 7.04839 56.8744 7.64331C56.8892 8.06826 56.6078 8.01641 56.3367 8.01641C54.6176 8.01641 52.8984 8.03369 51.1807 8.00488C50.6768 7.99624 50.4706 8.11436 50.5177 8.63727C50.5649 9.16017 50.5281 9.68163 50.5281 10.2607H57.9955C58.05 10.3587 58.0898 10.4048 58.0927 10.4408C58.1959 12.5151 58.1959 12.5151 56.0686 12.5151C53.5878 12.5151 51.108 12.5151 48.6292 12.5151C48.3625 12.505 48.0885 12.5742 47.8057 12.4301Z" fill="white"/>
<path d="M9.93351 4.87467C9.88932 2.82915 8.37786 1.34976 6.28302 1.33103C4.34582 1.31374 2.40861 1.32383 0.471408 1.33103C0.309361 1.33103 0.126692 1.27197 0 1.4117V12.4733H2.71651V8.61279C4.00552 8.61279 5.20467 8.65024 6.39941 8.60559C8.52518 8.52348 9.98066 6.9562 9.93351 4.87467ZM7.23027 5.01872C7.19638 5.79948 6.69256 6.33823 5.90442 6.3584C4.88205 6.38433 3.85673 6.3584 2.75923 6.3584V3.59694C3.85526 3.59694 4.92477 3.56381 5.98987 3.60703C6.78095 3.64304 7.26415 4.23797 7.23027 5.01296V5.01872Z" fill="white"/>
<path d="M91.1768 1.35406H93.9198V12.5094C93.1302 12.5094 92.3509 12.5007 91.5731 12.5094C91.2357 12.5094 91.1724 12.3509 91.1724 12.0642C91.1783 8.52203 91.1768 4.9755 91.1768 1.35406Z" fill="white"/>
<path d="M16.6764 6.10486C15.8441 8.05819 16.3405 9.62979 17.958 10.1628C19.4312 10.6482 20.9987 9.87467 21.417 8.45433C21.8354 7.03399 20.9972 5.60069 19.5461 5.28522C19.4238 5.87582 19.4842 6.47075 19.496 7.05992C19.496 7.49207 19.2913 7.58426 18.9068 7.56698C18.5503 7.55113 18.2217 7.59435 18.2306 7.07001C18.2527 5.70297 18.2497 4.33304 18.2306 2.96744C18.2232 2.45462 18.5429 2.47335 18.9082 2.46326C19.2736 2.45318 19.5535 2.53385 19.4784 2.97032C19.3664 3.63727 19.6699 3.89513 20.3166 4.11408C22.3083 4.78536 23.3439 7.04408 22.6442 8.99741C22.4676 9.48488 22.1944 9.93354 21.8405 10.3178C21.4865 10.702 21.0585 11.0143 20.5811 11.2367C20.1036 11.4592 19.586 11.5875 19.0578 11.6143C18.5297 11.6411 18.0013 11.5659 17.5028 11.393C15.52 10.7188 14.4092 8.5206 15.0589 6.54278C15.4493 5.35292 15.6452 5.29962 16.6764 6.10486Z" fill="#F9FCFA"/>
</g>
<defs>
<clipPath id="clip0_399_1776">
<rect width="123" height="15" fill="white"/>
</clipPath>
</defs>
</svg>
