<svg width="123" height="15" viewBox="0 0 123 15" fill="none" xmlns="http://www.w3.org/2000/svg">
<g clip-path="url(#clip0_399_1438)">
<path d="M18.8182 0C23.1449 0 26.5228 3.27859 26.5523 7.51369C26.5803 11.6004 23.0727 15.0043 18.8329 15.0043C14.6521 15.0043 11.1725 11.6134 11.1725 7.53385C11.1667 6.54775 11.36 5.57023 11.7415 4.65737C12.1229 3.74451 12.6849 2.91428 13.3953 2.21432C14.1057 1.51435 14.9504 0.958428 15.881 0.57844C16.8116 0.198453 17.8097 0.00187996 18.8182 0Z" fill="#3EB555"/>
<path d="M27.1621 1.37425C27.2225 1.3512 27.2446 1.33391 27.2682 1.33391C28.1521 1.33391 29.1965 1.06742 29.8668 1.44051C30.5062 1.79631 30.5386 2.90983 30.8376 3.68914C31.4711 5.34861 32.0736 7.02103 32.6923 8.69634C32.987 8.54509 32.987 8.24834 33.0724 8.01642C33.862 5.97955 34.6531 3.94267 35.4029 1.89139C35.5606 1.45924 35.7506 1.30366 36.225 1.31519C37.4492 1.344 37.4521 1.31519 37.8911 2.46759C38.6385 4.41804 39.3844 6.36896 40.1288 8.32037C40.1775 8.44858 40.1671 8.61568 40.3955 8.6805C41.2131 6.465 42.0469 4.25238 42.8365 2.02392C43.0251 1.49237 43.2681 1.25468 43.8677 1.31374C44.5233 1.37857 45.1936 1.32959 45.827 1.32959C45.9743 1.49237 45.8889 1.61769 45.8388 1.75022C44.4997 5.17142 43.1444 8.58687 41.8318 12.0167C41.6359 12.5281 41.4031 12.7053 40.8433 12.6894C39.354 12.6477 39.354 12.6765 38.8133 11.2979C38.0694 9.39931 37.321 7.50361 36.527 5.48545C35.758 7.44887 35.0302 9.3028 34.304 11.1553C33.6838 12.7398 33.6852 12.7269 31.9395 12.6808C31.6243 12.6736 31.4608 12.5958 31.3503 12.3019C29.9626 8.71603 28.5704 5.13349 27.1739 1.55431C27.1631 1.49491 27.1591 1.43451 27.1621 1.37425Z" fill="white"/>
<path d="M106.168 9.05928V1.36841H108.862C109.009 1.51246 108.945 1.71701 108.945 1.89996C108.945 5.21312 108.936 8.52629 108.959 11.8308C108.959 12.3508 108.84 12.4733 108.288 12.5395C106.745 12.7254 105.718 12.1679 104.752 10.9751C103.036 8.85905 101.121 6.89708 99.154 4.72047V5.6179C99.154 7.7052 99.1422 9.79537 99.1717 11.8798C99.179 12.3897 99.0243 12.5496 98.5102 12.5179C97.8311 12.4762 97.1475 12.5079 96.4478 12.5079C96.4244 12.3709 96.4082 12.233 96.3992 12.0944C96.3992 8.52629 96.3992 4.95815 96.3992 1.3252C97.2757 1.3252 98.1036 1.33528 98.9315 1.3252C99.2689 1.3252 99.3838 1.57728 99.5532 1.75735C101.568 3.98341 103.582 6.21235 105.593 8.44418C105.746 8.61704 105.908 8.7827 106.168 9.05928Z" fill="white"/>
<path d="M85.9957 8.10869C86.1651 8.0237 86.2726 7.97472 86.3757 7.91854C87.8165 7.15363 88.5251 5.62381 88.1818 4.02917C87.8651 2.54545 86.6335 1.41177 85.0307 1.36279C82.5838 1.28933 80.1325 1.34407 77.6414 1.34407V12.4749H80.3726V8.29739C80.9619 8.29739 81.5084 8.34781 82.0343 8.28443C82.7341 8.20088 83.1539 8.45441 83.5296 9.02917C84.2131 10.0793 84.9836 11.0747 85.7157 12.096C85.8719 12.3135 86.0104 12.5282 86.3404 12.5166C87.3377 12.5022 88.335 12.5166 89.4929 12.5166L85.9957 8.10869ZM84.0555 6.04876C82.8637 6.09342 81.6675 6.06028 80.4006 6.06028V3.60278C81.6454 3.60278 82.8608 3.57541 84.0732 3.61286C84.8481 3.63735 85.3813 4.16314 85.399 4.79696C85.4093 5.45527 84.8643 6.02283 84.0555 6.05308V6.04876Z" fill="white"/>
<path d="M68.4902 8.13892C70.3832 7.04557 71.1021 5.546 70.5997 3.81739C70.1121 2.14497 68.8113 1.33252 66.6222 1.33252H60.1138V12.4734H62.845V8.29593C63.4416 8.29593 63.9808 8.34203 64.5097 8.28441C65.1976 8.21094 65.6249 8.42846 66.002 9.02339C66.6752 10.0793 67.4545 11.0703 68.1911 12.0873C68.3163 12.2602 68.4091 12.4979 68.664 12.5008C69.7202 12.5123 70.7765 12.5008 71.9668 12.5008L68.4902 8.13892ZM66.5397 6.05594C65.345 6.0934 64.1473 6.06603 62.8745 6.06603V3.60996C64.1163 3.60996 65.3332 3.58403 66.5485 3.62005C67.3293 3.64165 67.8552 4.15447 67.8744 4.79406C67.8935 5.43364 67.319 6.03146 66.5397 6.05594Z" fill="white"/>
<path d="M123 3.39245L120.966 5.13114C120.31 4.48867 119.593 3.96577 118.701 3.70504C117.063 3.22679 115.297 3.79867 114.478 5.08504C113.674 6.34693 113.825 8.10291 114.828 9.166C115.774 10.1744 117.539 10.5791 118.831 10.075C119.715 9.73068 120.188 9.08677 120.216 8.05825C119.525 8.05825 118.844 8.02944 118.167 8.06689C117.685 8.0957 117.479 7.95165 117.552 7.46908C117.577 7.3024 117.577 7.13303 117.552 6.96635C117.473 6.46505 117.72 6.37718 118.178 6.39014C119.551 6.41607 120.926 6.41751 122.303 6.39014C122.784 6.37862 122.937 6.51115 122.928 6.9894C122.901 8.62005 122.928 10.2521 122.91 11.8871C122.91 12.0989 123.058 12.4489 122.713 12.4878C122.368 12.5267 121.919 12.6996 121.633 12.289C121.499 12.0974 121.385 11.8914 121.251 11.6768C118.819 13.3103 116.346 13.2931 113.899 11.8814C111.689 10.6051 110.683 8.12163 111.216 5.60219C111.699 3.32186 113.811 1.43336 116.352 1.05882C118.956 0.665566 121.185 1.35989 123 3.39245Z" fill="white"/>
<path d="M47.8054 12.4302V1.37573H57.9452V3.58259H55.0062C53.7054 3.58259 52.4032 3.60275 51.1024 3.57539C50.6486 3.56674 50.5234 3.70215 50.5131 4.15159C50.5131 5.79521 50.488 5.79521 52.1895 5.79521H56.8742C56.8742 6.45352 56.8595 7.04845 56.8742 7.64338C56.8889 8.06833 56.6075 8.01647 56.3365 8.01647C54.6173 8.01647 52.8981 8.03375 51.1804 8.00494C50.6766 7.9963 50.4704 8.11442 50.5175 8.63733C50.5646 9.16023 50.5278 9.68169 50.5278 10.2608H57.9953C58.0498 10.3587 58.0895 10.4048 58.0925 10.4408C58.1956 12.5152 58.1956 12.5152 56.0684 12.5152C53.5876 12.5152 51.1077 12.5152 48.6289 12.5152C48.3623 12.5051 48.0883 12.5742 47.8054 12.4302Z" fill="white"/>
<path d="M9.93351 4.87464C9.88932 2.82912 8.37786 1.34972 6.28302 1.331C4.34582 1.31371 2.40861 1.3238 0.471408 1.331C0.309361 1.331 0.126692 1.27194 0 1.41167V12.4733H2.71651V8.61276C4.00552 8.61276 5.20467 8.65021 6.39941 8.60556C8.52518 8.52345 9.98066 6.95617 9.93351 4.87464ZM7.23027 5.01869C7.19638 5.79945 6.69256 6.3382 5.90442 6.35837C4.88205 6.3843 3.85673 6.35837 2.75923 6.35837V3.59691C3.85526 3.59691 4.92477 3.56378 5.98987 3.607C6.78095 3.64301 7.26415 4.23794 7.23027 5.01293V5.01869Z" fill="white"/>
<path d="M91.1768 1.354H93.9198V12.5093C93.1302 12.5093 92.3509 12.5006 91.5731 12.5093C91.2357 12.5093 91.1724 12.3508 91.1724 12.0642C91.1783 8.52197 91.1768 4.97544 91.1768 1.354Z" fill="white"/>
<path d="M16.6762 6.1048C15.8438 8.05813 16.3403 9.62973 17.9578 10.1627C19.431 10.6482 20.9984 9.87461 21.4168 8.45427C21.8352 7.03393 20.9969 5.60063 19.5459 5.28515C19.4236 5.87576 19.484 6.47069 19.4958 7.05986C19.4958 7.49201 19.291 7.5842 18.9065 7.56692C18.55 7.55107 18.2215 7.59429 18.2303 7.06995C18.2524 5.7029 18.2495 4.33298 18.2303 2.96738C18.223 2.45456 18.5427 2.47329 18.908 2.4632C19.2733 2.45312 19.5532 2.53379 19.4781 2.97026C19.3661 3.63721 19.6696 3.89506 20.3163 4.11402C22.308 4.7853 23.3437 7.04402 22.6439 8.99734C22.4673 9.48482 22.1942 9.93348 21.8402 10.3177C21.4862 10.7019 21.0583 11.0142 20.5808 11.2367C20.1034 11.4591 19.5858 11.5874 19.0576 11.6142C18.5294 11.6411 18.001 11.5658 17.5026 11.3929C15.5197 10.7187 14.409 8.52054 15.0586 6.54272C15.449 5.35286 15.6449 5.29956 16.6762 6.1048Z" fill="#F9FCFA"/>
</g>
<defs>
<clipPath id="clip0_399_1438">
<rect width="123" height="15" fill="white"/>
</clipPath>
</defs>
</svg>
