<svg width="32" height="32" viewBox="0 0 32 32" fill="none" xmlns="http://www.w3.org/2000/svg">
<g clip-path="url(#clip0_284_1302)">
<path fill-rule="evenodd" clip-rule="evenodd" d="M16.0001 2.6665C8.63608 2.6665 2.66675 8.63584 2.66675 15.9998C2.66675 18.5198 3.36675 20.8798 4.58408 22.8905L3.39475 26.9332C3.32646 27.1653 3.32197 27.4115 3.38174 27.6459C3.44151 27.8804 3.56334 28.0944 3.73443 28.2655C3.90551 28.4366 4.11952 28.5584 4.35397 28.6182C4.58842 28.678 4.83464 28.6735 5.06675 28.6052L9.10941 27.4158C11.1877 28.6731 13.5711 29.3363 16.0001 29.3332C23.3641 29.3332 29.3334 23.3638 29.3334 15.9998C29.3334 8.63584 23.3641 2.6665 16.0001 2.6665ZM12.9841 19.0172C15.6814 21.7132 18.2561 22.0692 19.1654 22.1025C20.5481 22.1532 21.8947 21.0972 22.4187 19.8718C22.4843 19.7193 22.5081 19.552 22.4874 19.3872C22.4668 19.2225 22.4026 19.0662 22.3014 18.9345C21.5707 18.0012 20.5827 17.3305 19.6174 16.6638C19.416 16.5241 19.1682 16.468 18.9262 16.5073C18.6843 16.5466 18.467 16.6783 18.3201 16.8745L17.5201 18.0945C17.4778 18.1598 17.4123 18.2067 17.3368 18.2255C17.2612 18.2443 17.1814 18.2337 17.1134 18.1958C16.5707 17.8852 15.7801 17.3572 15.2121 16.7892C14.6441 16.2212 14.1481 15.4665 13.8694 14.9585C13.8357 14.8938 13.8262 14.8192 13.8426 14.748C13.8589 14.6769 13.9001 14.614 13.9587 14.5705L15.1907 13.6558C15.3671 13.5033 15.4809 13.291 15.5104 13.0598C15.54 12.8285 15.4831 12.5945 15.3507 12.4025C14.7534 11.5278 14.0574 10.4158 13.0481 9.6785C12.9175 9.58471 12.765 9.52623 12.6052 9.50871C12.4454 9.49119 12.2838 9.51523 12.1361 9.5785C10.9094 10.1038 9.84808 11.4505 9.89875 12.8358C9.93208 13.7452 10.2881 16.3198 12.9841 19.0172Z" fill="#555555"/>
</g>
<defs>
<clipPath id="clip0_284_1302">
<rect width="32" height="32" fill="white"/>
</clipPath>
</defs>
</svg>
