<svg width="123" height="15" viewBox="0 0 123 15" fill="none" xmlns="http://www.w3.org/2000/svg">
<g clip-path="url(#clip0_399_912)">
<path d="M18.8182 0C23.1449 0 26.5228 3.27859 26.5523 7.51369C26.5803 11.6004 23.0727 15.0043 18.8329 15.0043C14.6521 15.0043 11.1725 11.6134 11.1725 7.53385C11.1667 6.54775 11.36 5.57023 11.7415 4.65737C12.1229 3.74451 12.6849 2.91428 13.3953 2.21432C14.1057 1.51435 14.9504 0.958428 15.881 0.57844C16.8116 0.198453 17.8097 0.00187996 18.8182 0Z" fill="#3EB555"/>
<path d="M27.1621 1.37425C27.2225 1.3512 27.2446 1.33391 27.2682 1.33391C28.1521 1.33391 29.1965 1.06742 29.8668 1.44051C30.5062 1.79631 30.5386 2.90983 30.8376 3.68914C31.4711 5.34861 32.0736 7.02103 32.6923 8.69634C32.987 8.54509 32.987 8.24834 33.0724 8.01642C33.862 5.97955 34.6531 3.94267 35.4029 1.89139C35.5606 1.45924 35.7506 1.30366 36.225 1.31519C37.4492 1.344 37.4521 1.31519 37.8911 2.46759C38.6385 4.41804 39.3844 6.36896 40.1288 8.32037C40.1775 8.44858 40.1671 8.61568 40.3955 8.6805C41.2131 6.465 42.0469 4.25238 42.8365 2.02392C43.0251 1.49237 43.2681 1.25468 43.8677 1.31374C44.5233 1.37857 45.1936 1.32959 45.827 1.32959C45.9743 1.49237 45.8889 1.61769 45.8388 1.75022C44.4997 5.17142 43.1444 8.58687 41.8318 12.0167C41.6359 12.5281 41.4031 12.7053 40.8433 12.6894C39.354 12.6477 39.354 12.6765 38.8133 11.2979C38.0694 9.39931 37.321 7.50361 36.527 5.48545C35.758 7.44887 35.0302 9.3028 34.304 11.1553C33.6838 12.7398 33.6852 12.7269 31.9395 12.6808C31.6243 12.6736 31.4608 12.5958 31.3503 12.3019C29.9626 8.71603 28.5704 5.13349 27.1739 1.55431C27.1631 1.49491 27.1591 1.43451 27.1621 1.37425Z" fill="white"/>
<path d="M106.167 9.0594V1.36853H108.862C109.009 1.51258 108.944 1.71713 108.944 1.90008C108.944 5.21324 108.936 8.52641 108.959 11.8309C108.959 12.351 108.84 12.4734 108.287 12.5397C106.745 12.7255 105.718 12.168 104.752 10.9753C103.036 8.85917 101.12 6.8972 99.1537 4.72059V5.61803C99.1537 7.70532 99.142 9.7955 99.1714 11.8799C99.1788 12.3898 99.0241 12.5497 98.51 12.5181C97.8308 12.4763 97.1473 12.508 96.4475 12.508C96.4242 12.3711 96.408 12.2331 96.3989 12.0945C96.3989 8.52641 96.3989 4.95828 96.3989 1.32532C97.2755 1.32532 98.1034 1.3354 98.9313 1.32532C99.2686 1.32532 99.3835 1.57741 99.553 1.75747C101.568 3.98353 103.582 6.21247 105.593 8.4443C105.746 8.61716 105.908 8.78282 106.167 9.0594Z" fill="white"/>
<path d="M85.9959 8.10856C86.1653 8.02357 86.2729 7.9746 86.376 7.91842C87.8167 7.15351 88.5253 5.62369 88.1821 4.02905C87.8653 2.54532 86.6338 1.41165 85.031 1.36267C82.5841 1.2892 80.1327 1.34394 77.6416 1.34394V12.4747H80.3728V8.29727C80.9621 8.29727 81.5086 8.34769 82.0346 8.28431C82.7343 8.20076 83.1542 8.45429 83.5298 9.02905C84.2134 10.0792 84.9838 11.0746 85.716 12.0959C85.8721 12.3134 86.0106 12.528 86.3406 12.5165C87.3379 12.5021 88.3353 12.5165 89.4932 12.5165L85.9959 8.10856ZM84.0557 6.04864C82.864 6.0933 81.6678 6.06016 80.4008 6.06016V3.60266C81.6457 3.60266 82.861 3.57529 84.0734 3.61274C84.8483 3.63723 85.3816 4.16302 85.3993 4.79684C85.4096 5.45515 84.8645 6.02271 84.0557 6.05296V6.04864Z" fill="white"/>
<path d="M68.4902 8.13892C70.3832 7.04557 71.1021 5.546 70.5997 3.81739C70.1121 2.14497 68.8113 1.33252 66.6222 1.33252H60.1138V12.4734H62.845V8.29593C63.4416 8.29593 63.9808 8.34203 64.5097 8.28441C65.1976 8.21094 65.6249 8.42846 66.002 9.02339C66.6752 10.0793 67.4545 11.0703 68.1911 12.0873C68.3163 12.2602 68.4091 12.4979 68.664 12.5008C69.7202 12.5123 70.7765 12.5008 71.9668 12.5008L68.4902 8.13892ZM66.5397 6.05594C65.345 6.0934 64.1473 6.06603 62.8745 6.06603V3.60996C64.1163 3.60996 65.3332 3.58403 66.5485 3.62005C67.3293 3.64165 67.8552 4.15447 67.8744 4.79406C67.8935 5.43364 67.319 6.03146 66.5397 6.05594Z" fill="white"/>
<path d="M123 3.39245L120.965 5.13114C120.31 4.48867 119.592 3.96577 118.701 3.70504C117.063 3.22679 115.297 3.79867 114.478 5.08504C113.673 6.34693 113.825 8.10291 114.828 9.166C115.774 10.1744 117.539 10.5791 118.831 10.075C119.715 9.73068 120.188 9.08677 120.216 8.05825C119.525 8.05825 118.844 8.02944 118.166 8.06689C117.685 8.0957 117.478 7.95165 117.552 7.46908C117.577 7.3024 117.577 7.13303 117.552 6.96635C117.473 6.46505 117.72 6.37718 118.178 6.39014C119.551 6.41607 120.926 6.41751 122.303 6.39014C122.783 6.37862 122.936 6.51115 122.928 6.9894C122.901 8.62005 122.928 10.2521 122.91 11.8871C122.91 12.0989 123.057 12.4489 122.713 12.4878C122.368 12.5267 121.919 12.6996 121.633 12.289C121.499 12.0974 121.385 11.8914 121.251 11.6768C118.819 13.3103 116.346 13.2931 113.899 11.8814C111.689 10.6051 110.683 8.12163 111.216 5.60219C111.699 3.32186 113.81 1.43336 116.351 1.05882C118.956 0.665566 121.185 1.35989 123 3.39245Z" fill="white"/>
<path d="M47.8057 12.4302V1.37573H57.9454V3.58259H55.0065C53.7057 3.58259 52.4034 3.60275 51.1026 3.57539C50.6489 3.56674 50.5236 3.70215 50.5133 4.15159C50.5133 5.79521 50.4883 5.79521 52.1898 5.79521H56.8744C56.8744 6.45352 56.8597 7.04845 56.8744 7.64338C56.8892 8.06833 56.6078 8.01647 56.3367 8.01647C54.6176 8.01647 52.8984 8.03375 51.1807 8.00494C50.6768 7.9963 50.4706 8.11442 50.5177 8.63733C50.5649 9.16023 50.5281 9.68169 50.5281 10.2608H57.9955C58.05 10.3587 58.0898 10.4048 58.0927 10.4408C58.1959 12.5152 58.1959 12.5152 56.0686 12.5152C53.5878 12.5152 51.108 12.5152 48.6292 12.5152C48.3625 12.5051 48.0885 12.5742 47.8057 12.4302Z" fill="white"/>
<path d="M9.93351 4.87464C9.88932 2.82912 8.37786 1.34972 6.28302 1.331C4.34582 1.31371 2.40861 1.3238 0.471408 1.331C0.309361 1.331 0.126692 1.27194 0 1.41167V12.4733H2.71651V8.61276C4.00552 8.61276 5.20467 8.65021 6.39941 8.60556C8.52518 8.52345 9.98066 6.95617 9.93351 4.87464ZM7.23027 5.01869C7.19638 5.79945 6.69256 6.3382 5.90442 6.35837C4.88205 6.3843 3.85673 6.35837 2.75923 6.35837V3.59691C3.85526 3.59691 4.92477 3.56378 5.98987 3.607C6.78095 3.64301 7.26415 4.23794 7.23027 5.01293V5.01869Z" fill="white"/>
<path d="M91.1768 1.35413H93.9198V12.5094C93.1302 12.5094 92.3509 12.5008 91.5731 12.5094C91.2357 12.5094 91.1724 12.351 91.1724 12.0643C91.1783 8.52209 91.1768 4.97556 91.1768 1.35413Z" fill="white"/>
<path d="M16.6764 6.10493C15.8441 8.05825 16.3405 9.62985 17.958 10.1628C19.4312 10.6483 20.9987 9.87473 21.417 8.45439C21.8354 7.03405 20.9972 5.60075 19.5461 5.28528C19.4238 5.87589 19.4842 6.47082 19.496 7.05998C19.496 7.49214 19.2913 7.58433 18.9068 7.56704C18.5503 7.55119 18.2217 7.59441 18.2306 7.07007C18.2527 5.70303 18.2497 4.3331 18.2306 2.9675C18.2232 2.45468 18.5429 2.47341 18.9082 2.46332C19.2736 2.45324 19.5535 2.53391 19.4784 2.97038C19.3664 3.63734 19.6699 3.89519 20.3166 4.11414C22.3083 4.78542 23.3439 7.04414 22.6442 8.99747C22.4676 9.48494 22.1944 9.9336 21.8405 10.3178C21.4865 10.7021 21.0585 11.0143 20.5811 11.2368C20.1036 11.4593 19.586 11.5876 19.0578 11.6144C18.5297 11.6412 18.0013 11.566 17.5028 11.393C15.52 10.7189 14.4092 8.52066 15.0589 6.54284C15.4493 5.35298 15.6452 5.29968 16.6764 6.10493Z" fill="#F9FCFA"/>
</g>
<defs>
<clipPath id="clip0_399_912">
<rect width="123" height="15" fill="white"/>
</clipPath>
</defs>
</svg>
